<svg width="16" height="16" xmlns="http://www.w3.org/2000/svg">

 <g>
  <title>background</title>
  <rect fill="none" id="canvas_background" height="18" width="18" y="-1" x="-1"/>
 </g>
 <g>
  <title>Layer 1</title>
  <path stroke="null" opacity="0.7" id="svg_1" fill="#1E201D" d="m0.659553,8.614262c-0.312631,0 -0.56112,-0.25657 -0.56112,-0.569201c0,-0.312631 0.248489,-0.56112 0.56112,-0.56112l6.805666,0l0,-6.806171c0.000505,-0.312631 0.257075,-0.569201 0.569706,-0.569201c0.312631,0 0.56112,0.25657 0.56112,0.569201l0,6.806171l6.805666,0c0.312631,0 0.569201,0.248489 0.569201,0.56112c0,0.312631 -0.25657,0.569201 -0.569201,0.569201l-6.805666,0l0,6.806171c0,0.312631 -0.248489,0.569201 -0.56112,0.569201c-0.312631,0 -0.569201,-0.25657 -0.569201,-0.569201l0,-6.806171l-6.806171,0z"/>
  <g id="svg_2"/>
  <g id="svg_3"/>
  <g id="svg_4"/>
  <g id="svg_5"/>
  <g id="svg_6"/>
  <g id="svg_7"/>
  <g id="svg_8"/>
  <g id="svg_9"/>
  <g id="svg_10"/>
  <g id="svg_11"/>
  <g id="svg_12"/>
  <g id="svg_13"/>
  <g id="svg_14"/>
  <g id="svg_15"/>
  <g id="svg_16"/>
 </g>
</svg>